<svg width="32" height="32" viewBox="0 0 32 32" fill="none" xmlns="http://www.w3.org/2000/svg">
<path fill-rule="evenodd" clip-rule="evenodd" d="M17.1315 23.0385C17.5973 25.0746 18.9844 26.875 21.5117 28.322C21.9416 28.5427 22.1113 29.0701 21.8906 29.5C21.67 29.9299 21.1426 30.0996 20.7126 29.8789C17.679 28.322 15.9989 25.9348 15.4256 23.4287C14.9974 21.557 15.0408 19.5291 15.0806 17.6712C15.0918 17.1477 15.1027 16.6377 15.1027 16.1484H16.8527C16.8527 16.7242 16.8411 17.2915 16.8295 17.8504C16.7921 19.6694 16.7565 21.3991 17.1315 23.0385Z" fill="url(#paint0_radial_67_57)"/>
<path fill-rule="evenodd" clip-rule="evenodd" d="M17.1315 23.0385C17.5973 25.0746 18.9844 26.875 21.5117 28.322C21.9416 28.5427 22.1113 29.0701 21.8906 29.5C21.67 29.9299 21.1426 30.0996 20.7126 29.8789C17.679 28.322 15.9989 25.9348 15.4256 23.4287C14.9974 21.557 15.0408 19.5291 15.0806 17.6712C15.0918 17.1477 15.1027 16.6377 15.1027 16.1484H16.8527C16.8527 16.7242 16.8411 17.2915 16.8295 17.8504C16.7921 19.6694 16.7565 21.3991 17.1315 23.0385Z" fill="url(#paint1_linear_67_57)"/>
<path fill-rule="evenodd" clip-rule="evenodd" d="M17.1315 23.0385C17.5973 25.0746 18.9844 26.875 21.5117 28.322C21.9416 28.5427 22.1113 29.0701 21.8906 29.5C21.67 29.9299 21.1426 30.0996 20.7126 29.8789C17.679 28.322 15.9989 25.9348 15.4256 23.4287C14.9974 21.557 15.0408 19.5291 15.0806 17.6712C15.0918 17.1477 15.1027 16.6377 15.1027 16.1484H16.8527C16.8527 16.7242 16.8411 17.2915 16.8295 17.8504C16.7921 19.6694 16.7565 21.3991 17.1315 23.0385Z" fill="url(#paint2_radial_67_57)"/>
<path fill-rule="evenodd" clip-rule="evenodd" d="M17.1315 23.0385C17.5973 25.0746 18.9844 26.875 21.5117 28.322C21.9416 28.5427 22.1113 29.0701 21.8906 29.5C21.67 29.9299 21.1426 30.0996 20.7126 29.8789C17.679 28.322 15.9989 25.9348 15.4256 23.4287C14.9974 21.557 15.0408 19.5291 15.0806 17.6712C15.0918 17.1477 15.1027 16.6377 15.1027 16.1484H16.8527C16.8527 16.7242 16.8411 17.2915 16.8295 17.8504C16.7921 19.6694 16.7565 21.3991 17.1315 23.0385Z" fill="url(#paint3_radial_67_57)"/>
<path d="M17.9656 23.1708C15.5622 21.1257 16 15.9774 16 12.9305C20.0625 12.9305 22.7652 12.7028 25.3902 14.359C28.5536 16.3549 26.5153 20.6559 23.2493 20.2965C23.7337 23.0778 20.3096 25.1652 17.9656 23.1708Z" fill="url(#paint4_radial_67_57)"/>
<path d="M17.9656 23.1708C15.5622 21.1257 16 15.9774 16 12.9305C20.0625 12.9305 22.7652 12.7028 25.3902 14.359C28.5536 16.3549 26.5153 20.6559 23.2493 20.2965C23.7337 23.0778 20.3096 25.1652 17.9656 23.1708Z" fill="url(#paint5_radial_67_57)"/>
<path d="M17.9656 23.1708C15.5622 21.1257 16 15.9774 16 12.9305C20.0625 12.9305 22.7652 12.7028 25.3902 14.359C28.5536 16.3549 26.5153 20.6559 23.2493 20.2965C23.7337 23.0778 20.3096 25.1652 17.9656 23.1708Z" fill="url(#paint6_radial_67_57)"/>
<path d="M25.3904 14.3594C28.5537 16.3553 26.5155 20.6563 23.2495 20.2969L16.0002 12.9309C20.0626 12.9309 22.7654 12.7031 25.3904 14.3594Z" fill="url(#paint7_radial_67_57)"/>
<path d="M25.3904 14.3594C28.5537 16.3553 26.5155 20.6563 23.2495 20.2969L16.0002 12.9309C20.0626 12.9309 22.7654 12.7031 25.3904 14.3594Z" fill="url(#paint8_radial_67_57)"/>
<path d="M25.3904 14.3594C28.5537 16.3553 26.5155 20.6563 23.2495 20.2969L16.0002 12.9309C20.0626 12.9309 22.7654 12.7031 25.3904 14.3594Z" fill="url(#paint9_radial_67_57)"/>
<path d="M25.3904 14.3594C28.5537 16.3553 26.5155 20.6563 23.2495 20.2969L16.0002 12.9309C20.0626 12.9309 22.7654 12.7031 25.3904 14.3594Z" fill="url(#paint10_radial_67_57)"/>
<path d="M18.0313 2.82745C15.5313 4.92123 16 9.91397 16 12.9609C20.0625 12.9609 22.7813 13.296 25.4063 11.6398C28.5696 9.64383 26.4219 5.34288 23.202 5.72654C23.6864 2.94531 20.2838 0.940923 18.0313 2.82745Z" fill="url(#paint11_radial_67_57)"/>
<path d="M18.0313 2.82745C15.5313 4.92123 16 9.91397 16 12.9609C20.0625 12.9609 22.7813 13.296 25.4063 11.6398C28.5696 9.64383 26.4219 5.34288 23.202 5.72654C23.6864 2.94531 20.2838 0.940923 18.0313 2.82745Z" fill="url(#paint12_radial_67_57)"/>
<path d="M18.0313 2.82745C15.5313 4.92123 16 9.91397 16 12.9609C20.0625 12.9609 22.7813 13.296 25.4063 11.6398C28.5696 9.64383 26.4219 5.34288 23.202 5.72654C23.6864 2.94531 20.2838 0.940923 18.0313 2.82745Z" fill="url(#paint13_radial_67_57)"/>
<path d="M18.0313 2.82745C15.5313 4.92123 16 9.91397 16 12.9609C20.0625 12.9609 22.7813 13.296 25.4063 11.6398C28.5696 9.64383 26.4219 5.34288 23.202 5.72654C23.6864 2.94531 20.2838 0.940923 18.0313 2.82745Z" fill="url(#paint14_radial_67_57)"/>
<path d="M18.0313 2.82745C15.5313 4.92123 16 9.91397 16 12.9609C20.0625 12.9609 22.7813 13.296 25.4063 11.6398C28.5696 9.64383 26.4219 5.34288 23.202 5.72654C23.6864 2.94531 20.2838 0.940923 18.0313 2.82745Z" fill="url(#paint15_radial_67_57)"/>
<path d="M18.0303 2.82832C15.5303 4.9221 15.9991 9.91483 15.9991 12.9617L23.201 5.72741C23.6854 2.94617 20.2829 0.941793 18.0303 2.82832Z" fill="#48D386"/>
<path d="M18.0303 2.82832C15.5303 4.9221 15.9991 9.91483 15.9991 12.9617L23.201 5.72741C23.6854 2.94617 20.2829 0.941793 18.0303 2.82832Z" fill="url(#paint16_radial_67_57)"/>
<path d="M18.0303 2.82832C15.5303 4.9221 15.9991 9.91483 15.9991 12.9617L23.201 5.72741C23.6854 2.94617 20.2829 0.941793 18.0303 2.82832Z" fill="url(#paint17_radial_67_57)"/>
<path d="M18.0303 2.82832C15.5303 4.9221 15.9991 9.91483 15.9991 12.9617L23.201 5.72741C23.6854 2.94617 20.2829 0.941793 18.0303 2.82832Z" fill="url(#paint18_radial_67_57)"/>
<path d="M18.0303 2.82832C15.5303 4.9221 15.9991 9.91483 15.9991 12.9617L23.201 5.72741C23.6854 2.94617 20.2829 0.941793 18.0303 2.82832Z" fill="url(#paint19_radial_67_57)"/>
<path d="M13.8438 23.2816C16.6429 21.1663 16.0246 15.437 16.0246 12.9305C11.9621 12.9305 9.15545 12.7651 6.53045 14.4213C3.52528 16.3174 5.60888 20.609 8.74948 20.2809C8.2651 23.0621 11.4996 25.053 13.8438 23.2816Z" fill="url(#paint20_radial_67_57)"/>
<path d="M13.8438 23.2816C16.6429 21.1663 16.0246 15.437 16.0246 12.9305C11.9621 12.9305 9.15545 12.7651 6.53045 14.4213C3.52528 16.3174 5.60888 20.609 8.74948 20.2809C8.2651 23.0621 11.4996 25.053 13.8438 23.2816Z" fill="url(#paint21_radial_67_57)"/>
<path d="M13.8438 23.2816C16.6429 21.1663 16.0246 15.437 16.0246 12.9305C11.9621 12.9305 9.15545 12.7651 6.53045 14.4213C3.52528 16.3174 5.60888 20.609 8.74948 20.2809C8.2651 23.0621 11.4996 25.053 13.8438 23.2816Z" fill="url(#paint22_radial_67_57)"/>
<path d="M13.8438 23.2816C16.6429 21.1663 16.0246 15.437 16.0246 12.9305C11.9621 12.9305 9.15545 12.7651 6.53045 14.4213C3.52528 16.3174 5.60888 20.609 8.74948 20.2809C8.2651 23.0621 11.4996 25.053 13.8438 23.2816Z" fill="url(#paint23_radial_67_57)"/>
<path d="M13.8445 23.2821C16.6437 21.1668 16.0254 15.4375 16.0254 12.9311L8.75027 20.2814C8.26589 23.0627 11.5004 25.0535 13.8445 23.2821Z" fill="url(#paint24_radial_67_57)"/>
<path d="M13.8445 23.2821C16.6437 21.1668 16.0254 15.4375 16.0254 12.9311L8.75027 20.2814C8.26589 23.0627 11.5004 25.0535 13.8445 23.2821Z" fill="url(#paint25_radial_67_57)"/>
<path d="M13.8445 23.2821C16.6437 21.1668 16.0254 15.4375 16.0254 12.9311L8.75027 20.2814C8.26589 23.0627 11.5004 25.0535 13.8445 23.2821Z" fill="url(#paint26_radial_67_57)"/>
<path d="M13.8445 23.2821C16.6437 21.1668 16.0254 15.4375 16.0254 12.9311L8.75027 20.2814C8.26589 23.0627 11.5004 25.0535 13.8445 23.2821Z" fill="url(#paint27_radial_67_57)"/>
<path d="M13.8869 2.80466C16.3524 4.89843 15.998 9.91396 15.998 12.9609C11.9916 12.9609 9.16745 13.3125 6.57869 11.6562C3.45901 9.66031 5.53218 5.32811 8.771 5.72652C8.2933 2.94529 11.6654 0.918126 13.8869 2.80466Z" fill="url(#paint28_linear_67_57)"/>
<path d="M13.8869 2.80466C16.3524 4.89843 15.998 9.91396 15.998 12.9609C11.9916 12.9609 9.16745 13.3125 6.57869 11.6562C3.45901 9.66031 5.53218 5.32811 8.771 5.72652C8.2933 2.94529 11.6654 0.918126 13.8869 2.80466Z" fill="url(#paint29_radial_67_57)"/>
<path d="M13.8869 2.80466C16.3524 4.89843 15.998 9.91396 15.998 12.9609C11.9916 12.9609 9.16745 13.3125 6.57869 11.6562C3.45901 9.66031 5.53218 5.32811 8.771 5.72652C8.2933 2.94529 11.6654 0.918126 13.8869 2.80466Z" fill="url(#paint30_radial_67_57)"/>
<path d="M13.8869 2.80466C16.3524 4.89843 15.998 9.91396 15.998 12.9609C11.9916 12.9609 9.16745 13.3125 6.57869 11.6562C3.45901 9.66031 5.53218 5.32811 8.771 5.72652C8.2933 2.94529 11.6654 0.918126 13.8869 2.80466Z" fill="url(#paint31_radial_67_57)"/>
<path d="M13.8873 2.80467C16.3528 4.89845 15.9984 9.91398 15.9984 12.9609L8.77144 5.72654C8.29374 2.9453 11.6659 0.918141 13.8873 2.80467Z" fill="url(#paint32_radial_67_57)"/>
<path d="M13.8873 2.80467C16.3528 4.89845 15.9984 9.91398 15.9984 12.9609L8.77144 5.72654C8.29374 2.9453 11.6659 0.918141 13.8873 2.80467Z" fill="url(#paint33_radial_67_57)"/>
<path d="M13.8873 2.80467C16.3528 4.89845 15.9984 9.91398 15.9984 12.9609L8.77144 5.72654C8.29374 2.9453 11.6659 0.918141 13.8873 2.80467Z" fill="url(#paint34_radial_67_57)"/>
<path d="M13.8873 2.80467C16.3528 4.89845 15.9984 9.91398 15.9984 12.9609L8.77144 5.72654C8.29374 2.9453 11.6659 0.918141 13.8873 2.80467Z" fill="url(#paint35_radial_67_57)"/>
<path d="M13.8873 2.80467C16.3528 4.89845 15.9984 9.91398 15.9984 12.9609L8.77144 5.72654C8.29374 2.9453 11.6659 0.918141 13.8873 2.80467Z" fill="url(#paint36_radial_67_57)"/>
<path d="M13.8873 2.80467C16.3528 4.89845 15.9984 9.91398 15.9984 12.9609L8.77144 5.72654C8.29374 2.9453 11.6659 0.918141 13.8873 2.80467Z" fill="url(#paint37_radial_67_57)"/>
<path d="M13.8873 2.80467C16.3528 4.89845 15.9984 9.91398 15.9984 12.9609L8.77144 5.72654C8.29374 2.9453 11.6659 0.918141 13.8873 2.80467Z" fill="url(#paint38_linear_67_57)"/>
<defs>
<radialGradient id="paint0_radial_67_57" cx="0" cy="0" r="1" gradientUnits="userSpaceOnUse" gradientTransform="translate(19.3125 23.6563) rotate(61.049) scale(6.71402 3.08408)">
<stop offset="0.782842" stop-color="#5C9D8C"/>
<stop offset="1" stop-color="#3B646F"/>
</radialGradient>
<linearGradient id="paint1_linear_67_57" x1="15.4063" y1="18.0625" x2="19.0937" y2="25.6875" gradientUnits="userSpaceOnUse">
<stop offset="0.146967" stop-color="#144E44"/>
<stop offset="1" stop-color="#144E44" stop-opacity="0"/>
</linearGradient>
<radialGradient id="paint2_radial_67_57" cx="0" cy="0" r="1" gradientUnits="userSpaceOnUse" gradientTransform="translate(21.6875 28.875) rotate(143.973) scale(0.850092 0.909108)">
<stop stop-color="#6BAC9A"/>
<stop offset="1" stop-color="#6AAC9A" stop-opacity="0"/>
</radialGradient>
<radialGradient id="paint3_radial_67_57" cx="0" cy="0" r="1" gradientUnits="userSpaceOnUse" gradientTransform="translate(17.1562 21.5) rotate(83.3255) scale(2.95754 0.802226)">
<stop offset="0.592714" stop-color="#5A7E72"/>
<stop offset="1" stop-color="#5A7E72" stop-opacity="0"/>
</radialGradient>
<radialGradient id="paint4_radial_67_57" cx="0" cy="0" r="1" gradientUnits="userSpaceOnUse" gradientTransform="translate(23.3436 20.3121) rotate(-141.083) scale(11.7681 7.67541)">
<stop offset="0.120266" stop-color="#45DF95"/>
<stop offset="0.539194" stop-color="#42B785"/>
<stop offset="0.919541" stop-color="#249757"/>
</radialGradient>
<radialGradient id="paint5_radial_67_57" cx="0" cy="0" r="1" gradientUnits="userSpaceOnUse" gradientTransform="translate(20.6873 17.6246) rotate(-133.688) scale(5.79095 1.45904)">
<stop offset="0.401048" stop-color="#69D699"/>
<stop offset="0.909552" stop-color="#69D699" stop-opacity="0"/>
</radialGradient>
<radialGradient id="paint6_radial_67_57" cx="0" cy="0" r="1" gradientUnits="userSpaceOnUse" gradientTransform="translate(21.4695 10.6246) rotate(95.2588) scale(23.5366 11.5378)">
<stop offset="0.484495" stop-color="#45B991" stop-opacity="0"/>
<stop offset="0.579844" stop-color="#498C8A"/>
</radialGradient>
<radialGradient id="paint7_radial_67_57" cx="0" cy="0" r="1" gradientUnits="userSpaceOnUse" gradientTransform="translate(27.7812 13.156) rotate(178.417) scale(12.4422 13.1617)">
<stop offset="0.307826" stop-color="#55E48C"/>
<stop offset="0.538805" stop-color="#43CD91"/>
<stop offset="0.948317" stop-color="#208C52"/>
</radialGradient>
<radialGradient id="paint8_radial_67_57" cx="0" cy="0" r="1" gradientUnits="userSpaceOnUse" gradientTransform="translate(20.125 16.9685) rotate(-134.215) scale(4.83972 0.931851)">
<stop offset="0.0742695" stop-color="#3BB07A"/>
<stop offset="1" stop-color="#2CA868" stop-opacity="0"/>
</radialGradient>
<radialGradient id="paint9_radial_67_57" cx="0" cy="0" r="1" gradientUnits="userSpaceOnUse" gradientTransform="translate(26.25 16.0623) rotate(-159.832) scale(5.07586 3.45816)">
<stop stop-color="#7FFFB0"/>
<stop offset="1" stop-color="#7FFFB0" stop-opacity="0"/>
</radialGradient>
<radialGradient id="paint10_radial_67_57" cx="0" cy="0" r="1" gradientUnits="userSpaceOnUse" gradientTransform="translate(23.8125 20.7498) rotate(77.7352) scale(1.47108 7.99497)">
<stop offset="0.245487" stop-color="#50A08F"/>
<stop offset="1" stop-color="#40C18F" stop-opacity="0"/>
</radialGradient>
<radialGradient id="paint11_radial_67_57" cx="0" cy="0" r="1" gradientUnits="userSpaceOnUse" gradientTransform="translate(26.7822 4.65538) rotate(142.981) scale(13.5469 13.6626)">
<stop offset="0.20888" stop-color="#56F091"/>
<stop offset="0.584815" stop-color="#49C489"/>
<stop offset="0.762057" stop-color="#3F9F7D"/>
<stop offset="0.966147" stop-color="#2A8660"/>
</radialGradient>
<radialGradient id="paint12_radial_67_57" cx="0" cy="0" r="1" gradientUnits="userSpaceOnUse" gradientTransform="translate(26.6259 7.53917) rotate(180) scale(5.875 2.77246)">
<stop offset="0.155556" stop-color="#7FFFB2"/>
<stop offset="1" stop-color="#64EA9E" stop-opacity="0"/>
</radialGradient>
<radialGradient id="paint13_radial_67_57" cx="0" cy="0" r="1" gradientUnits="userSpaceOnUse" gradientTransform="translate(20.9072 7.99913) rotate(134.37) scale(4.02191 0.530298)">
<stop stop-color="#44D785"/>
<stop offset="1" stop-color="#44D785" stop-opacity="0"/>
</radialGradient>
<radialGradient id="paint14_radial_67_57" cx="0" cy="0" r="1" gradientUnits="userSpaceOnUse" gradientTransform="translate(17.4384 11.4054) rotate(135.215) scale(5.89996 0.663239)">
<stop stop-color="#26945A"/>
<stop offset="1" stop-color="#26945A" stop-opacity="0"/>
</radialGradient>
<radialGradient id="paint15_radial_67_57" cx="0" cy="0" r="1" gradientUnits="userSpaceOnUse" gradientTransform="translate(23.7822 5.28038) rotate(102.011) scale(1.50163 4.68068)">
<stop stop-color="#64EB94"/>
<stop offset="1" stop-color="#64EB94" stop-opacity="0"/>
</radialGradient>
<radialGradient id="paint16_radial_67_57" cx="0" cy="0" r="1" gradientUnits="userSpaceOnUse" gradientTransform="translate(23.2476 4) rotate(128.31) scale(11.7486 12.6154)">
<stop offset="0.116729" stop-color="#56F091"/>
<stop offset="0.536018" stop-color="#49C489"/>
<stop offset="0.810895" stop-color="#399573"/>
<stop offset="1" stop-color="#1D8854"/>
</radialGradient>
<radialGradient id="paint17_radial_67_57" cx="0" cy="0" r="1" gradientUnits="userSpaceOnUse" gradientTransform="translate(23.2476 5.875) rotate(-116) scale(5.84114 3.04667)">
<stop offset="0.246003" stop-color="#7FFFB2"/>
<stop offset="0.956884" stop-color="#52E490" stop-opacity="0"/>
</radialGradient>
<radialGradient id="paint18_radial_67_57" cx="0" cy="0" r="1" gradientUnits="userSpaceOnUse" gradientTransform="translate(21.7808 7.0625) rotate(112.781) scale(21.3871 14.1032)">
<stop offset="0.233814" stop-color="#509A65" stop-opacity="0"/>
<stop offset="0.517579" stop-color="#2D9654"/>
</radialGradient>
<radialGradient id="paint19_radial_67_57" cx="0" cy="0" r="1" gradientUnits="userSpaceOnUse" gradientTransform="translate(17.1246 12.1562) rotate(-44.6649) scale(7.55733 0.817707)">
<stop offset="0.116765" stop-color="#3F9B7D"/>
<stop offset="1" stop-color="#3F9B7D" stop-opacity="0"/>
</radialGradient>
<radialGradient id="paint20_radial_67_57" cx="0" cy="0" r="1" gradientUnits="userSpaceOnUse" gradientTransform="translate(15.1242 12.9252) rotate(146.992) scale(11.552 6.58599)">
<stop stop-color="#50CB82"/>
<stop offset="0.5476" stop-color="#3DBF7E"/>
<stop offset="1" stop-color="#399970"/>
</radialGradient>
<radialGradient id="paint21_radial_67_57" cx="0" cy="0" r="1" gradientUnits="userSpaceOnUse" gradientTransform="translate(14.9367 14.687) rotate(142.769) scale(6.2013 2.01046)">
<stop offset="0.409408" stop-color="#77DC9F"/>
<stop offset="0.865291" stop-color="#4FC985" stop-opacity="0"/>
</radialGradient>
<radialGradient id="paint22_radial_67_57" cx="0" cy="0" r="1" gradientUnits="userSpaceOnUse" gradientTransform="translate(11.3117 18.4389) rotate(69.3869) scale(13.5532 19.0536)">
<stop offset="0.306903" stop-color="#1FA45F" stop-opacity="0"/>
<stop offset="0.413746" stop-color="#3DA163"/>
</radialGradient>
<radialGradient id="paint23_radial_67_57" cx="0" cy="0" r="1" gradientUnits="userSpaceOnUse" gradientTransform="translate(8.37421 20.9995) rotate(90) scale(2.95313 7.70898)">
<stop stop-color="#53888A"/>
<stop offset="1" stop-color="#3CA584" stop-opacity="0"/>
</radialGradient>
<radialGradient id="paint24_radial_67_57" cx="0" cy="0" r="1" gradientUnits="userSpaceOnUse" gradientTransform="translate(15.6567 14.9062) rotate(122.298) scale(10.7028 6.61536)">
<stop stop-color="#73D89A"/>
<stop offset="0.473451" stop-color="#48C48D"/>
<stop offset="0.876852" stop-color="#3FAB89"/>
</radialGradient>
<radialGradient id="paint25_radial_67_57" cx="0" cy="0" r="1" gradientUnits="userSpaceOnUse" gradientTransform="translate(15.4379 14.625) rotate(110.095) scale(10.9144 3.26363)">
<stop offset="0.224292" stop-color="#78DEA0"/>
<stop offset="1" stop-color="#48C792" stop-opacity="0"/>
</radialGradient>
<radialGradient id="paint26_radial_67_57" cx="0" cy="0" r="1" gradientUnits="userSpaceOnUse" gradientTransform="translate(14.5629 14.2187) rotate(135) scale(8.52947 0.991107)">
<stop offset="0.184071" stop-color="#2BBF6A"/>
<stop offset="0.995028" stop-color="#2BBF6A" stop-opacity="0"/>
</radialGradient>
<radialGradient id="paint27_radial_67_57" cx="0" cy="0" r="1" gradientUnits="userSpaceOnUse" gradientTransform="translate(12.393 13.75) rotate(88.293) scale(16.1947 10.8461)">
<stop offset="0.54891" stop-color="#498C8A" stop-opacity="0"/>
<stop offset="0.647236" stop-color="#498C8A"/>
</radialGradient>
<linearGradient id="paint28_linear_67_57" x1="10.5894" y1="4.61716" x2="16.1257" y2="13.5487" gradientUnits="userSpaceOnUse">
<stop stop-color="#3AC97D"/>
<stop offset="1" stop-color="#3FAD80"/>
</linearGradient>
<radialGradient id="paint29_radial_67_57" cx="0" cy="0" r="1" gradientUnits="userSpaceOnUse" gradientTransform="translate(7.65582 6.24998) rotate(32.0203) scale(12.7158 7.33059)">
<stop stop-color="#41D881"/>
<stop offset="0.754404" stop-color="#3CA07C"/>
<stop offset="0.865637" stop-color="#38A975"/>
</radialGradient>
<radialGradient id="paint30_radial_67_57" cx="0" cy="0" r="1" gradientUnits="userSpaceOnUse" gradientTransform="translate(14.9996 -3.12501) rotate(103.147) scale(17.5859 16.814)">
<stop offset="0.8631" stop-color="#3BA37C" stop-opacity="0"/>
<stop offset="0.96087" stop-color="#2F8567"/>
</radialGradient>
<radialGradient id="paint31_radial_67_57" cx="0" cy="0" r="1" gradientUnits="userSpaceOnUse" gradientTransform="translate(12.2808 9.03123) rotate(42.9399) scale(6.14696 1.28716)">
<stop offset="0.272563" stop-color="#77DBA1"/>
<stop offset="1" stop-color="#77DBA1" stop-opacity="0"/>
</radialGradient>
<radialGradient id="paint32_radial_67_57" cx="0" cy="0" r="1" gradientUnits="userSpaceOnUse" gradientTransform="translate(11.0929 2.25) rotate(67.2639) scale(12.74 12.7588)">
<stop offset="0.0621556" stop-color="#41D881"/>
<stop offset="0.822327" stop-color="#38A975"/>
</radialGradient>
<radialGradient id="paint33_radial_67_57" cx="0" cy="0" r="1" gradientUnits="userSpaceOnUse" gradientTransform="translate(14.7491 7.51562) rotate(58.7274) scale(15.411 10.3164)">
<stop offset="0.265209" stop-color="#3DCD7F" stop-opacity="0"/>
<stop offset="0.480757" stop-color="#43A266"/>
</radialGradient>
<radialGradient id="paint34_radial_67_57" cx="0" cy="0" r="1" gradientUnits="userSpaceOnUse" gradientTransform="translate(13.7491 3.5) rotate(77.9177) scale(10.0028 3.16473)">
<stop offset="0.120445" stop-color="#74F4A5"/>
<stop offset="1" stop-color="#74F4A5" stop-opacity="0"/>
</radialGradient>
<radialGradient id="paint35_radial_67_57" cx="0" cy="0" r="1" gradientUnits="userSpaceOnUse" gradientTransform="translate(16.0167 8.125) rotate(82.2492) scale(13.3091 0.954433)">
<stop stop-color="#097832"/>
<stop offset="1" stop-color="#59DA8E" stop-opacity="0"/>
</radialGradient>
<radialGradient id="paint36_radial_67_57" cx="0" cy="0" r="1" gradientUnits="userSpaceOnUse" gradientTransform="translate(16.0167 12.25) rotate(57.5777) scale(6.14546 4.11389)">
<stop stop-color="#2E9A6A"/>
<stop offset="1" stop-color="#56CA8C" stop-opacity="0"/>
</radialGradient>
<radialGradient id="paint37_radial_67_57" cx="0" cy="0" r="1" gradientUnits="userSpaceOnUse" gradientTransform="translate(12.3712 9.8125) rotate(45.3664) scale(6.58714 1.45714)">
<stop offset="0.374988" stop-color="#41AC81"/>
<stop offset="1" stop-color="#41AC81" stop-opacity="0"/>
</radialGradient>
<linearGradient id="paint38_linear_67_57" x1="16.0167" y1="10.6875" x2="15.4991" y2="10.6875" gradientUnits="userSpaceOnUse">
<stop stop-color="#14884D"/>
<stop offset="1" stop-color="#279D67" stop-opacity="0"/>
</linearGradient>
</defs>
</svg>
